<svg width="28" height="26" viewBox="0 0 28 26" fill="none" xmlns="http://www.w3.org/2000/svg">
<g filter="url(#filter0_d_1_2068)">
<path d="M23 7.75H5C4.59 7.75 4.25 7.41 4.25 7C4.25 6.59 4.59 6.25 5 6.25H23C23.41 6.25 23.75 6.59 23.75 7C23.75 7.41 23.41 7.75 23 7.75Z" fill="white" fill-opacity="0.87"/>
<path d="M20 12.75H8C7.59 12.75 7.25 12.41 7.25 12C7.25 11.59 7.59 11.25 8 11.25H20C20.41 11.25 20.75 11.59 20.75 12C20.75 12.41 20.41 12.75 20 12.75Z" fill="white" fill-opacity="0.87"/>
<path d="M16 17.75H12C11.59 17.75 11.25 17.41 11.25 17C11.25 16.59 11.59 16.25 12 16.25H16C16.41 16.25 16.75 16.59 16.75 17C16.75 17.41 16.41 17.75 16 17.75Z" fill="white" fill-opacity="0.87"/>
</g>
<defs>
<filter id="filter0_d_1_2068" x="-2" y="0" width="32" height="32" filterUnits="userSpaceOnUse" color-interpolation-filters="sRGB">
<feFlood flood-opacity="0" result="BackgroundImageFix"/>
<feColorMatrix in="SourceAlpha" type="matrix" values="0 0 0 0 0 0 0 0 0 0 0 0 0 0 0 0 0 0 127 0" result="hardAlpha"/>
<feOffset dy="4"/>
<feGaussianBlur stdDeviation="2"/>
<feComposite in2="hardAlpha" operator="out"/>
<feColorMatrix type="matrix" values="0 0 0 0 0 0 0 0 0 0 0 0 0 0 0 0 0 0 0.25 0"/>
<feBlend mode="normal" in2="BackgroundImageFix" result="effect1_dropShadow_1_2068"/>
<feBlend mode="normal" in="SourceGraphic" in2="effect1_dropShadow_1_2068" result="shape"/>
</filter>
</defs>
</svg>
