<svg width="32" height="32" viewBox="0 0 32 32" fill="none" xmlns="http://www.w3.org/2000/svg">
<g clip-path="url(#clip0_1_3302)">
<path d="M25.3333 6.66934H22.6667C21.196 6.66934 20 7.86534 20 9.33601V13.336H12V9.33601C12 7.86534 10.804 6.66934 9.33333 6.66934H6.66667C5.196 6.66934 4 7.86534 4 9.33601V20.0027C4 21.4733 5.196 22.6693 6.66667 22.6693H9.33333C10.804 22.6693 12 21.4733 12 20.0027V16.0027H20V20.0027C20 21.4733 21.196 22.6693 22.6667 22.6693H25.3333C26.804 22.6693 28 21.4733 28 20.0027V9.33601C28 7.86534 26.804 6.66934 25.3333 6.66934V6.66934ZM6.66667 20.0027V9.33601H9.33333L9.33467 20.0027H6.66667ZM22.6667 20.0027V9.33601H25.3333L25.3347 20.0027H22.6667ZM29.3333 12.0027H32V17.336H29.3333V12.0027ZM0 12.0027H2.66667V17.336H0V12.0027Z" fill="#00A32F"/>
</g>
<defs>
<clipPath id="clip0_1_3302">
<rect width="32" height="32.0027" fill="white"/>
</clipPath>
</defs>
</svg>
